{"title":"In the Name of the King III 2014 Nl Subs MPEG4-HEAAC-LC x264-NLU","uid":9937407,"size":947024307,"categoryP":"video","categoryS":"movies","magnet":"?xt=urn:btih:9fe26cdc4a35b5ba6e634da167e4920245da7ed3&amp;dn=In+the+Name+of+the+King+III+2014+Nl+Subs+MPEG4-HEAAC-LC+x264-NLU&amp;tr=udp%3A%2F%2Ftracker.openbittorrent.com%3A80&amp;tr=udp%3A%2F%2Fopen.demonii.com%3A1337&amp;tr=udp%3A%2F%2Ftracker.coppersurfer.tk%3A6969&amp;tr=udp%3A%2F%2Fexodus.desync.com%3A6969","seeders":1,"leechers":0,"uploader":"NLUPPER002","files":-1,"time":1397174321,"description":"In the Name of the King III 2014 Nl Subs MPEG4-HEAAC-LC x264-NLU002\n.\nR -  86 min  -  Action | Adventure | Drama  -  26 February 2014 (Japan) \n. &lt;a href=&quot;\nhttp://www.imdb.com/title/tt2379386/&quot; rel=&quot;nofollow&quot; target=&quot;_NEW&quot;&gt;\nhttp://www.imdb.com/title/tt2379386/&lt;/a&gt;\n. &lt;a href=&quot;\nhttp://www.moviemeter.nl/film/90235&quot; rel=&quot;nofollow&quot; target=&quot;_NEW&quot;&gt;\nhttp://www.moviemeter.nl/film/90235&lt;/a&gt;\n.\nPLOT\n.\nAn modern-day assassin, wanting out, is hired for one final job - to kidnap the kids of a local businessman. Things go haywire when it turns out he's chosen to return to the Middle Ages and bring back order to a kingdom in chaos.\n.\nSource: Retail DVDR9\nFormat: MP4\nVideo: PAL\nAudio: English\nRetail Subtitles: Dutch. Hardcoded yellow\n.\nEnjoy Encode by NLU002\n.\nGeneral\nComplete name                            : In the Name of the King III (2014) NL Subs MPEG-4-HE AAC-LC x264-NLU002 .mp4\nFormat                                   : MPEG-4\nFormat profile                           : Base Media / Version 2\nCodec ID                                 : mp42\nFile size                                : 903 MiB\nDuration                                 : 1h 22mn\nOverall bit rate mode                    : Variable\nOverall bit rate                         : 1 530 Kbps\nMovie name                               : In the Name of the King III (2014) NL Subs MPEG-4-HE AAC-LC x264-NLU002 \nWriting application                      : TMPGEnc Video Mastering Works 5 Version. 5.4.2.103\nComment                                  : Enjoy encode from NLU002\n\nVideo\nID                                       : 2\nFormat                                   : AVC\nFormat/Info                              : Advanced Video Codec\nFormat profile                           : &lt;a class=&quot;__cf_email__&quot; href=&quot;/cdn-cgi/l/email-protection&quot; data-cfemail=&quot;eba3828c83aba7d8c5db&quot;&gt;[email&amp;#160;protected]&lt;/a&gt;&lt;script cf-hash='f9e31' type=&quot;text/javascript&quot;&gt;\n/* &lt;![CDATA[ */!function(){try{var t=&quot;currentScript&quot;in document?document.currentScript:function(){for(var t=document.getElementsByTagName(&quot;script&quot;),e=t.length;e--;)if(t[e].getAttribute(&quot;cf-hash&quot;))return t[e]}();if(t&amp;&amp;t.previousSibling){var e,r,n,i,c=t.previousSibling,a=c.getAttribute(&quot;data-cfemail&quot;);if(a){for(e=&quot;&quot;,r=parseInt(a.substr(0,2),16),n=2;a.length-n;n+=2)i=parseInt(a.substr(n,2),16)^r,e+=String.fromCharCode(i);e=document.createTextNode(e),c.parentNode.replaceChild(e,c)}}}catch(u){}}();/* ]]&gt; */&lt;/script&gt;\nFormat settings, CABAC                   : Yes\nFormat settings, ReFrames                : 5 frames\nCodec ID                                 : avc1\nCodec ID/Info                            : Advanced Video Coding\nDuration                                 : 1h 22mn\nBit rate mode                            : Variable\nBit rate                                 : 1 332 Kbps\nWidth                                    : 720 pixels\nHeight                                   : 576 pixels\nDisplay aspect ratio                     : 16:9\nFrame rate mode                          : Constant\nFrame rate                               : 25.000 fps\nStandard                                 : NTSC\nColor space                              : YUV\nChroma subsampling                       : 4:2:0\nBit depth                                : 8 bits\nScan type                                : Progressive\nBits/(Pixel*Frame)                       : 0.128\nStream size                              : 775 MiB (86%)\nWriting library                          : x264 core 136\nEncoding settings                        : cabac=1 / ref=5 / deblock=1:0:0 / analyse=0x3:0x113 / me=hex / subme=7 / psy=1 / psy_rd=1.00:0.00 / mixed_ref=1 / me_range=16 / chroma_me=1 / trellis=1 / 8x8dct=1 / cqm=2 / deadzone=21,11 / fast_pskip=1 / chroma_qp_offset=-4 / threads=12 / lookahead_threads=2 / sliced_threads=0 / slices=1 / nr=0 / decimate=1 / interlaced=fake / bluray_compat=0 / constrained_intra=0 / bframes=3 / b_pyramid=0 / b_adapt=1 / b_bias=0 / direct=1 / weightb=1 / open_gop=0 / weightp=1 / keyint=250 / keyint_min=25 / scenecut=40 / intra_refresh=0 / rc_lookahead=40 / rc=2pass / mbtree=1 / bitrate=1332 / ratetol=1.0 / qcomp=0.60 / qpmin=5 / qpmax=69 / qpstep=4 / cplxblur=20.0 / qblur=0.5 / vbv_maxrate=1332 / vbv_bufsize=1332 / nal_hrd=vbr / ip_ratio=1.40 / aq=1:1.00\nColor primaries                          : BT.601 NTSC\nTransfer characteristics                 : BT.601\nMatrix coefficients                      : BT.601\n\nAudio\nID                                       : 1\nFormat                                   : AAC\nFormat/Info                              : Advanced Audio Codec\nFormat profile                           : HE-AAC / LC\nCodec ID                                 : 40\nDuration                                 : 1h 22mn\nBit rate mode                            : Variable\nBit rate                                 : 215 Kbps\nMaximum bit rate                         : 432 Kbps\nChannel(s)                               : 2 channels\nChannel(s)_Original                      : 3 channels\nChannel positions                        : Front: L R, Side: C\nSampling rate                            : 48.0 KHz / 24.0 KHz\nCompression mode                         : Lossy\nStream size                              : 127 MiB (14%)\n\n","torrent":{"xt":"urn:btih:9fe26cdc4a35b5ba6e634da167e4920245da7ed3","amp;dn":"In+the+Name+of+the+King+III+2014+Nl+Subs+MPEG4-HEAAC-LC+x264-NLU","amp;tr":["udp%3A%2F%2Ftracker.openbittorrent.com%3A80","udp%3A%2F%2Fopen.demonii.com%3A1337","udp%3A%2F%2Ftracker.coppersurfer.tk%3A6969","udp%3A%2F%2Fexodus.desync.com%3A6969"],"infoHash":"9fe26cdc4a35b5ba6e634da167e4920245da7ed3","infoHashBuffer":{"type":"Buffer","data":[159,226,108,220,74,53,181,186,110,99,77,161,103,228,146,2,69,218,126,211]},"announce":[],"urlList":[]}}